# xmcd
#
# Track frame offsets:
#	150
#	16033
#	30182
#	44616
#	59318
#	72238
#	84300
#	100820
#	119815
#	136378
#	150296
#	166030
#	182663
#	200059
#	219757
#	234729
#	252097
#	268539
#	283037
#	293782
#
# Disc length: 4200 seconds
#
# Revision: 0
# Processed by: cddbd v1.4PL0 Copyright (c) Steve Scherf et al.
# Submitted via: audiograbber 1.81.02
#
DISCID=11106614
DTITLE=Kenny Rogers - Greatest hits
DYEAR=2002
DGENRE=Country
TTITLE0=The Gambler
TTITLE1=Daytime Friends
TTITLE2=But you know I love you
TTITLE3=Another somebody done something wrong
TTITLE4=Ruby, don't take your love to town
TTITLE5=Reuben James
TTITLE6=Lucille
TTITLE7=She believes in me
TTITLE8=You decorated my life
TTITLE9=All I ever need is you
TTITLE10=I don't need you
TTITLE11=Don't fall in love with a dreamer
TTITLE12=Lady
TTITLE13=Coward of the country
TTITLE14=Share you love with me
TTITLE15=We've got tonight
TTITLE16=Love will turn you around
TTITLE17=Love the world away
TTITLE18=Anyone who isn't me tonight
TTITLE19=Through the years
EXTD=
EXTT0=
EXTT1=
EXTT2=
EXTT3=
EXTT4=
EXTT5=
EXTT6=
EXTT7=
EXTT8=
EXTT9=
EXTT10=
EXTT11=
EXTT12=
EXTT13=
EXTT14=
EXTT15=
EXTT16=
EXTT17=
EXTT18=
EXTT19=
PLAYORDER=
